<svg width="680" height="546" viewBox="0 0 680 546" fill="none" xmlns="http://www.w3.org/2000/svg">
<rect width="680" height="546" fill="#EAEAEA"/>
<path d="M402.969 331H277.031C268.857 331 262.5 324.656 262.5 316.5V229.5C262.5 221.646 268.857 215 277.031 215H402.969C410.84 215 417.5 221.646 417.5 229.5V316.5C417.5 324.656 410.84 331 402.969 331ZM296.406 231.917C287.021 231.917 279.453 239.771 279.453 248.833C279.453 258.198 287.021 265.75 296.406 265.75C305.488 265.75 313.359 258.198 313.359 248.833C313.359 239.771 305.488 231.917 296.406 231.917ZM281.875 311.667H398.125V277.833L371.484 251.552C369.971 250.042 367.852 250.042 366.338 251.552L325.469 292.333L308.516 275.719C307.002 274.208 304.883 274.208 303.369 275.719L281.875 297.167V311.667Z" fill="#BBBBBB"/>
</svg>
